<svg width="42" height="42" viewBox="0 0 42 42" fill="none" xmlns="http://www.w3.org/2000/svg">
<path d="M34.875 16.4063C34.8751 13.8135 34.177 11.2686 32.854 9.03878C31.531 6.80898 29.632 4.97659 27.3563 3.73407C25.0807 2.49156 22.5125 1.88478 19.9214 1.97746C17.3303 2.07014 14.812 2.85887 12.631 4.2608C10.4499 5.66273 8.68667 7.62612 7.52638 9.94475C6.36609 12.2634 5.8516 14.8517 6.03694 17.4378C6.22228 20.0239 7.10062 22.5124 8.57969 24.6419C10.0588 26.7713 12.084 28.4632 14.4427 29.5398L19.5732 34.6822C19.8125 34.8915 20.1196 35.0069 20.4375 35.0069C20.7554 35.0069 21.0625 34.8915 21.3018 34.6822L26.4323 29.5398C28.9506 28.3904 31.0853 26.5412 32.5822 24.2127C34.079 21.8842 34.8749 19.1744 34.875 16.4063Z" fill="#78CFFF"/>
<path d="M20.4375 27.5625C26.5989 27.5625 31.5938 22.5677 31.5938 16.4062C31.5938 10.2448 26.5989 5.25 20.4375 5.25C14.2761 5.25 9.28125 10.2448 9.28125 16.4062C9.28125 22.5677 14.2761 27.5625 20.4375 27.5625Z" fill="white"/>
<g filter="url(#filter0_f_3_223)">
<ellipse cx="21" cy="36.75" rx="10.5" ry="0.75" fill="black" fill-opacity="0.8"/>
</g>
<path d="M25.5 12.625V23.125H16.5V12.625" stroke="#FF465A" stroke-linecap="round" stroke-linejoin="round"/>
<path d="M17.625 11.125H16.5V10.0102C17.7956 9.03026 19.3756 8.5 21 8.5C22.6244 8.5 24.2044 9.03026 25.5 10.0102V11.125H24.375" stroke="#FF465A" stroke-linecap="round" stroke-linejoin="round"/>
<path d="M18.75 15.625H23.25" stroke="#FF465A" stroke-linecap="round" stroke-linejoin="round"/>
<path d="M18.75 18.25H23.25" stroke="#FF465A" stroke-linecap="round" stroke-linejoin="round"/>
<path d="M21 13V20.875" stroke="#FF465A" stroke-linecap="round" stroke-linejoin="round"/>
<path d="M23.25 13H18.75V20.875H23.25V13Z" stroke="#FF465A" stroke-linecap="round" stroke-linejoin="round"/>
<defs>
<filter id="filter0_f_3_223" x="7.5" y="33" width="27" height="7.5" filterUnits="userSpaceOnUse" color-interpolation-filters="sRGB">
<feFlood flood-opacity="0" result="BackgroundImageFix"/>
<feBlend mode="normal" in="SourceGraphic" in2="BackgroundImageFix" result="shape"/>
<feGaussianBlur stdDeviation="1.5" result="effect1_foregroundBlur_3_223"/>
</filter>
</defs>
</svg>
